<svg width="14" height="14" viewBox="0 0 14 14" fill="none" xmlns="http://www.w3.org/2000/svg">
<path d="M4.08313 9.28845C4.56924 9.28845 4.98244 9.11831 5.32271 8.77804C5.66299 8.43776 5.83313 8.02456 5.83313 7.53845C5.83313 7.05234 5.66299 6.63915 5.32271 6.29887C4.98244 5.95859 4.56924 5.78845 4.08313 5.78845C3.59702 5.78845 3.18382 5.95859 2.84355 6.29887C2.50327 6.63915 2.33313 7.05234 2.33313 7.53845C2.33313 8.02456 2.50327 8.43776 2.84355 8.77804C3.18382 9.11831 3.59702 9.28845 4.08313 9.28845ZM4.08313 11.0385C3.11091 11.0385 2.28452 10.6982 1.60396 10.0176C0.923408 9.33706 0.58313 8.51067 0.58313 7.53845C0.58313 6.56623 0.923408 5.73984 1.60396 5.05929C2.28452 4.37873 3.11091 4.03845 4.08313 4.03845C4.87063 4.03845 5.55857 4.26206 6.14696 4.70929C6.73535 5.15651 7.14602 5.71067 7.37896 6.37179H12.2644L13.4165 7.52387L11.3748 9.8572L9.91646 8.70512L8.7498 9.87179L7.58313 8.70512H7.37896C7.13591 9.40512 6.71299 9.96901 6.11021 10.3968C5.50744 10.8246 4.83174 11.0385 4.08313 11.0385Z" fill="#1560BD"/>
</svg>
