<svg width="18" height="18" viewBox="0 0 18 18" fill="none" xmlns="http://www.w3.org/2000/svg">
<path d="M2.931 3.936L4.206 8.185M9.813 13.794L14.064 15.069M8.683 9.317L14.442 3.558M1 2.5C1 2.69698 1.0388 2.89204 1.11418 3.07403C1.18956 3.25601 1.30005 3.42137 1.43934 3.56066C1.57863 3.69995 1.74399 3.81044 1.92597 3.88582C2.10796 3.9612 2.30302 4 2.5 4C2.69698 4 2.89204 3.9612 3.07403 3.88582C3.25601 3.81044 3.42137 3.69995 3.56066 3.56066C3.69995 3.42137 3.81044 3.25601 3.88582 3.07403C3.9612 2.89204 4 2.69698 4 2.5C4 2.30302 3.9612 2.10796 3.88582 1.92597C3.81044 1.74399 3.69995 1.57863 3.56066 1.43934C3.42137 1.30005 3.25601 1.18956 3.07403 1.11418C2.89204 1.0388 2.69698 1 2.5 1C2.30302 1 2.10796 1.0388 1.92597 1.11418C1.74399 1.18956 1.57863 1.30005 1.43934 1.43934C1.30005 1.57863 1.18956 1.74399 1.11418 1.92597C1.0388 2.10796 1 2.30302 1 2.5ZM14 2.5C14 2.89782 14.158 3.27936 14.4393 3.56066C14.7206 3.84196 15.1022 4 15.5 4C15.8978 4 16.2794 3.84196 16.5607 3.56066C16.842 3.27936 17 2.89782 17 2.5C17 2.10218 16.842 1.72064 16.5607 1.43934C16.2794 1.15804 15.8978 1 15.5 1C15.1022 1 14.7206 1.15804 14.4393 1.43934C14.158 1.72064 14 2.10218 14 2.5ZM14 15.5C14 15.8978 14.158 16.2794 14.4393 16.5607C14.7206 16.842 15.1022 17 15.5 17C15.8978 17 16.2794 16.842 16.5607 16.5607C16.842 16.2794 17 15.8978 17 15.5C17 15.1022 16.842 14.7206 16.5607 14.4393C16.2794 14.158 15.8978 14 15.5 14C15.1022 14 14.7206 14.158 14.4393 14.4393C14.158 14.7206 14 15.1022 14 15.5ZM1 12.5C1 13.6935 1.47411 14.8381 2.31802 15.682C3.16193 16.5259 4.30653 17 5.5 17C6.69347 17 7.83807 16.5259 8.68198 15.682C9.52589 14.8381 10 13.6935 10 12.5C10 11.3065 9.52589 10.1619 8.68198 9.31802C7.83807 8.47411 6.69347 8 5.5 8C4.30653 8 3.16193 8.47411 2.31802 9.31802C1.47411 10.1619 1 11.3065 1 12.5Z" stroke='black' stroke-linecap="round" stroke-linejoin="round"/>
</svg>
