<svg width="18" height="16" viewBox="0 0 18 16" fill="none" xmlns="http://www.w3.org/2000/svg">
<path d="M10.6012 14.8229L17.1215 8.0347L10.6012 1.24646C10.5423 1.16637 10.4675 1.10032 10.3819 1.05278C10.2962 1.00524 10.2016 0.977318 10.1046 0.970908C10.0076 0.964498 9.91044 0.979749 9.81962 1.01563C9.72881 1.05151 9.64649 1.10717 9.57826 1.17886C9.51002 1.25056 9.45745 1.33659 9.42411 1.43115C9.39077 1.52572 9.37744 1.62659 9.38501 1.72696C9.39259 1.82732 9.42089 1.92482 9.46801 2.01287C9.51513 2.10092 9.57997 2.17745 9.65813 2.23729L14.5364 7.33198L1.55703 7.33198C1.37709 7.33198 1.20451 7.40602 1.07727 7.5378C0.950029 7.66959 0.878545 7.84833 0.878545 8.0347C0.878545 8.22107 0.950029 8.39981 1.07727 8.5316C1.20451 8.66338 1.37709 8.73742 1.55703 8.73742L14.5364 8.73742L9.65813 13.8321C9.53127 13.9644 9.46036 14.1435 9.461 14.33C9.46163 14.5165 9.53376 14.6951 9.66152 14.8265C9.78929 14.9578 9.96221 15.0313 10.1423 15.0306C10.3223 15.03 10.4947 14.9553 10.6216 14.8229L10.6012 14.8229Z" fill="black" fill-opacity="0.3"/>
</svg>
