<svg width="18" height="16" viewBox="0 0 18 16" fill="none" xmlns="http://www.w3.org/2000/svg">
<path d="M7.39877 14.8229L0.87854 8.0347L7.39877 1.24646C7.45766 1.16637 7.53247 1.10032 7.61815 1.05278C7.70383 1.00524 7.79837 0.977318 7.89537 0.970908C7.99237 0.964498 8.08956 0.979749 8.18038 1.01563C8.27119 1.05151 8.35351 1.10717 8.42174 1.17886C8.48998 1.25056 8.54255 1.33659 8.57589 1.43115C8.60923 1.52572 8.62256 1.62659 8.61499 1.72696C8.60741 1.82732 8.57911 1.92482 8.53199 2.01287C8.48487 2.10092 8.42003 2.17745 8.34187 2.23729L3.46357 7.33198L16.443 7.33198C16.6229 7.33198 16.7955 7.40602 16.9227 7.5378C17.05 7.66959 17.1215 7.84833 17.1215 8.0347C17.1215 8.22107 17.05 8.39981 16.9227 8.5316C16.7955 8.66338 16.6229 8.73742 16.443 8.73742L3.46357 8.73742L8.34187 13.8321C8.46873 13.9644 8.53964 14.1435 8.539 14.33C8.53837 14.5165 8.46624 14.6951 8.33848 14.8265C8.21071 14.9578 8.03779 15.0313 7.85774 15.0306C7.6777 15.03 7.50528 14.9553 7.37842 14.8229L7.39877 14.8229Z" fill="black" fill-opacity="0.3"/>
</svg>
