<svg width="18" height="18" viewBox="0 0 18 18" fill="none" xmlns="http://www.w3.org/2000/svg">
<path d="M1.2 4.47273C1.2 3.43556 1.2 2.91697 1.37394 2.50972C1.59188 1.99946 1.99737 1.5929 2.50629 1.3744C2.91248 1.2 3.42971 1.2 4.46417 1.2C5.49862 1.2 6.01585 1.2 6.42205 1.3744C6.93097 1.5929 7.33646 1.99946 7.55439 2.50972C7.72833 2.91697 7.72833 3.43556 7.72833 4.47273C7.72833 5.50991 7.72833 6.02849 7.55439 6.43575C7.33646 6.94601 6.93097 7.35257 6.42205 7.57107C6.01585 7.74547 5.49862 7.74547 4.46417 7.74547C3.42971 7.74547 2.91248 7.74547 2.50629 7.57107C1.99737 7.35257 1.59188 6.94601 1.37394 6.43575C1.2 6.02849 1.2 5.50991 1.2 4.47273Z" stroke="black"/>
<path d="M10.2717 4.47273C10.2717 3.43556 10.2717 2.91697 10.4456 2.50972C10.6635 1.99946 11.069 1.5929 11.578 1.3744C11.9841 1.2 12.5014 1.2 13.5358 1.2C14.5703 1.2 15.0875 1.2 15.4937 1.3744C16.0026 1.5929 16.4081 1.99946 16.6261 2.50972C16.8 2.91697 16.8 3.43556 16.8 4.47273C16.8 5.50991 16.8 6.02849 16.6261 6.43575C16.4081 6.94601 16.0026 7.35257 15.4937 7.57107C15.0875 7.74547 14.5703 7.74547 13.5358 7.74547C12.5014 7.74547 11.9841 7.74547 11.578 7.57107C11.069 7.35257 10.6635 6.94601 10.4456 6.43575C10.2717 6.02849 10.2717 5.50991 10.2717 4.47273Z" stroke="black"/>
<path d="M10.2717 13.5273C10.2717 12.4901 10.2717 11.9715 10.4456 11.5642C10.6635 11.054 11.069 10.6474 11.578 10.4289C11.9841 10.2545 12.5014 10.2545 13.5358 10.2545C14.5703 10.2545 15.0875 10.2545 15.4937 10.4289C16.0026 10.6474 16.4081 11.054 16.6261 11.5642C16.8 11.9715 16.8 12.4901 16.8 13.5273C16.8 14.5644 16.8 15.083 16.6261 15.4903C16.4081 16.0005 16.0026 16.4071 15.4937 16.6256C15.0875 16.8 14.5703 16.8 13.5358 16.8C12.5014 16.8 11.9841 16.8 11.578 16.6256C11.069 16.4071 10.6635 16.0005 10.4456 15.4903C10.2717 15.083 10.2717 14.5644 10.2717 13.5273Z" stroke="black"/>
<path d="M1.2 13.5273C1.2 12.4901 1.2 11.9715 1.37394 11.5642C1.59188 11.054 1.99737 10.6474 2.50629 10.4289C2.91248 10.2545 3.42971 10.2545 4.46417 10.2545C5.49862 10.2545 6.01585 10.2545 6.42205 10.4289C6.93097 10.6474 7.33646 11.054 7.55439 11.5642C7.72833 11.9715 7.72833 12.4901 7.72833 13.5273C7.72833 14.5644 7.72833 15.083 7.55439 15.4903C7.33646 16.0005 6.93097 16.4071 6.42205 16.6256C6.01585 16.8 5.49862 16.8 4.46417 16.8C3.42971 16.8 2.91248 16.8 2.50629 16.6256C1.99737 16.4071 1.59188 16.0005 1.37394 15.4903C1.2 15.083 1.2 14.5644 1.2 13.5273Z" stroke="black"/>
</svg>
