<svg width="15" height="16" viewBox="0 0 15 16" fill="none" xmlns="http://www.w3.org/2000/svg">
<path d="M14.2383 6.12794C14.1671 5.90958 14.0332 5.71696 13.8534 5.57403C13.6736 5.43111 13.4558 5.34417 13.227 5.32403L9.88712 5.03516L8.58048 1.92149C8.4906 1.70975 8.34039 1.52914 8.14857 1.40218C7.95675 1.27522 7.7318 1.20752 7.50177 1.20752C7.27174 1.20752 7.0468 1.27522 6.85498 1.40218C6.66316 1.52914 6.51295 1.70975 6.42306 1.92149L5.11466 5.03516L1.77482 5.32403C1.54477 5.34308 1.32548 5.42964 1.14444 5.57286C0.963413 5.71608 0.828709 5.90957 0.757236 6.12906C0.685763 6.34855 0.680703 6.58426 0.742693 6.80661C0.804682 7.02897 0.930959 7.22806 1.10568 7.37891L3.64396 9.59376L2.88224 12.8891C2.83 13.1135 2.84507 13.3483 2.92555 13.5642C3.00603 13.78 3.14836 13.9674 3.33475 14.1028C3.52113 14.2382 3.7433 14.3157 3.97349 14.3256C4.20367 14.3354 4.43165 14.2772 4.62892 14.1582L7.50001 12.4145L10.3711 14.1582C10.5684 14.277 10.7963 14.3351 11.0264 14.3252C11.2564 14.3152 11.4785 14.2377 11.6648 14.1023C11.851 13.9669 11.9933 13.7796 12.0738 13.5639C12.1542 13.3481 12.1693 13.1134 12.1172 12.8891L11.3555 9.59376L13.8938 7.37891C14.068 7.22751 14.1937 7.02802 14.255 6.80546C14.3163 6.58291 14.3105 6.34721 14.2383 6.12794Z" fill="#FFC107"/>
</svg>
