<svg width="19" height="19" viewBox="0 0 19 19" fill="none" xmlns="http://www.w3.org/2000/svg">
<path d="M9.5 1.78125C7.97338 1.78125 6.48104 2.23395 5.2117 3.08209C3.94235 3.93024 2.95302 5.13574 2.36881 6.54616C1.78459 7.95658 1.63174 9.50856 1.92957 11.0059C2.2274 12.5031 2.96254 13.8785 4.04202 14.958C5.12151 16.0375 6.49686 16.7726 7.99415 17.0704C9.49144 17.3683 11.0434 17.2154 12.4538 16.6312C13.8643 16.047 15.0698 15.0576 15.9179 13.7883C16.7661 12.519 17.2188 11.0266 17.2188 9.5C17.2166 7.45352 16.4027 5.49148 14.9556 4.04441C13.5085 2.59733 11.5465 1.78341 9.5 1.78125ZM9.5 16.0312C8.20824 16.0312 6.94549 15.6482 5.87144 14.9305C4.79738 14.2129 3.96025 13.1928 3.46592 11.9994C2.97158 10.806 2.84224 9.49275 3.09425 8.22582C3.34626 6.95888 3.9683 5.79512 4.88171 4.88171C5.79512 3.9683 6.95888 3.34626 8.22582 3.09425C9.49276 2.84224 10.806 2.97158 11.9994 3.46591C13.1928 3.96025 14.2129 4.79737 14.9305 5.87143C15.6482 6.94549 16.0313 8.20824 16.0313 9.5C16.0293 11.2316 15.3405 12.8917 14.1161 14.1161C12.8917 15.3405 11.2316 16.0293 9.5 16.0312ZM10.6875 13.0625C10.6875 13.22 10.6249 13.371 10.5136 13.4823C10.4022 13.5937 10.2512 13.6562 10.0938 13.6562C9.77881 13.6562 9.47676 13.5311 9.25406 13.3084C9.03136 13.0857 8.90625 12.7837 8.90625 12.4688V9.5C8.74878 9.5 8.59776 9.43744 8.48641 9.32609C8.37506 9.21475 8.3125 9.06372 8.3125 8.90625C8.3125 8.74878 8.37506 8.59775 8.48641 8.48641C8.59776 8.37506 8.74878 8.3125 8.90625 8.3125C9.2212 8.3125 9.52324 8.43761 9.74594 8.66031C9.96864 8.88301 10.0938 9.18506 10.0938 9.5V12.4688C10.2512 12.4688 10.4022 12.5313 10.5136 12.6427C10.6249 12.754 10.6875 12.905 10.6875 13.0625ZM8.3125 6.23438C8.3125 6.05823 8.36474 5.88603 8.4626 5.73957C8.56046 5.59311 8.69956 5.47895 8.8623 5.41154C9.02504 5.34414 9.20412 5.3265 9.37688 5.36086C9.54965 5.39523 9.70834 5.48005 9.8329 5.60461C9.95745 5.72916 10.0423 5.88786 10.0766 6.06062C10.111 6.23339 10.0934 6.41246 10.026 6.5752C9.95855 6.73794 9.8444 6.87704 9.69793 6.9749C9.55147 7.07277 9.37928 7.125 9.20313 7.125C8.96692 7.125 8.74039 7.03117 8.57336 6.86414C8.40634 6.69712 8.3125 6.47058 8.3125 6.23438Z" fill="url(#paint0_linear_1_412)"/>
<defs>
<linearGradient id="paint0_linear_1_412" x1="3.17861" y1="17.2188" x2="16.3537" y2="17.2188" gradientUnits="userSpaceOnUse">
<stop stop-color="#C5269A"/>
<stop offset="1" stop-color="#4E43E5"/>
</linearGradient>
</defs>
</svg>
