<svg width="26" height="26" viewBox="0 0 26 26" fill="none" xmlns="http://www.w3.org/2000/svg">
<path d="M10 13.2953C10.3596 13.7834 10.8183 14.1873 11.3451 14.4796C11.8719 14.7718 12.4545 14.9456 13.0532 14.9891C13.652 15.0327 14.253 14.945 14.8154 14.7319C15.3779 14.5189 15.8886 14.1855 16.313 13.7544L18.8248 11.2039C19.5874 10.4022 20.0094 9.32844 19.9998 8.21389C19.9903 7.09933 19.55 6.03318 18.7738 5.24504C17.9977 4.4569 16.9477 4.00985 15.85 4.00016C14.7524 3.99048 13.6949 4.41893 12.9053 5.19326L11.4652 6.64704" stroke="black" stroke-linecap="round" stroke-linejoin="round"/>
<path d="M14 10.7047C13.6404 10.2166 13.1817 9.81269 12.6549 9.52044C12.1281 9.22819 11.5455 9.0544 10.9468 9.01086C10.348 8.96732 9.74701 9.05504 9.18456 9.26808C8.62212 9.48112 8.11138 9.81449 7.68697 10.2456L5.17516 12.7961C4.41258 13.5978 3.99062 14.6716 4.00016 15.7861C4.0097 16.9007 4.44997 17.9668 5.22616 18.755C6.00234 19.5431 7.05233 19.9902 8.14998 19.9998C9.24763 20.0095 10.3051 19.5811 11.0947 18.8067L12.5264 17.353" stroke="black" stroke-linecap="round" stroke-linejoin="round"/>
</svg>
