<svg width="18" height="16" viewBox="0 0 18 16" fill="none" xmlns="http://www.w3.org/2000/svg">
<path d="M6.6 1.77778H17M6.6 8H12.2M6.6 14.2222H17M2.6 14.2222C2.6 14.4285 2.51571 14.6263 2.36569 14.7722C2.21566 14.9181 2.01217 15 1.8 15C1.58783 15 1.38434 14.9181 1.23431 14.7722C1.08429 14.6263 1 14.4285 1 14.2222C1 14.0159 1.08429 13.8181 1.23431 13.6722C1.38434 13.5264 1.58783 13.4444 1.8 13.4444C2.01217 13.4444 2.21566 13.5264 2.36569 13.6722C2.51571 13.8181 2.6 14.0159 2.6 14.2222ZM2.6 8C2.6 8.20628 2.51571 8.40411 2.36569 8.54997C2.21566 8.69583 2.01217 8.77778 1.8 8.77778C1.58783 8.77778 1.38434 8.69583 1.23431 8.54997C1.08429 8.40411 1 8.20628 1 8C1 7.79372 1.08429 7.59589 1.23431 7.45003C1.38434 7.30417 1.58783 7.22222 1.8 7.22222C2.01217 7.22222 2.21566 7.30417 2.36569 7.45003C2.51571 7.59589 2.6 7.79372 2.6 8ZM2.6 1.77778C2.6 1.98406 2.51571 2.18189 2.36569 2.32775C2.21566 2.47361 2.01217 2.55556 1.8 2.55556C1.58783 2.55556 1.38434 2.47361 1.23431 2.32775C1.08429 2.18189 1 1.98406 1 1.77778C1 1.5715 1.08429 1.37367 1.23431 1.22781C1.38434 1.08194 1.58783 1 1.8 1C2.01217 1 2.21566 1.08194 2.36569 1.22781C2.51571 1.37367 2.6 1.5715 2.6 1.77778Z" stroke="black" stroke-linecap="round"/>
</svg>
