<svg width="27" height="26" viewBox="0 0 27 26" fill="none" xmlns="http://www.w3.org/2000/svg">
<path d="M15.625 3C16.0808 3 16.4375 3.36583 16.4375 3.83333C16.4375 3.84833 16.4367 3.90417 16.4351 3.91917L15.6705 11.3333H19.6875C20.1433 11.3333 20.5 11.6992 20.5 12.1667C20.5 12.3442 20.4407 12.5267 20.3367 12.6675L13.8505 22.6475C13.6856 22.875 13.4418 23 13.1875 23C12.7317 23 12.375 22.6342 12.375 22.1667C12.375 22.15 12.3758 22.0842 12.3774 22.0675L13.1371 15.5H8.3125C7.85669 15.5 7.5 15.1342 7.5 14.6667C7.5 14.4908 7.55931 14.3083 7.6625 14.1667L14.9661 3.34583C15.1269 3.125 15.3707 3 15.625 3Z" fill="white"/>
</svg>
