<svg width="20" height="19" viewBox="0 0 20 19" fill="none" xmlns="http://www.w3.org/2000/svg">
<path d="M9.48848 0C11.0533 0 12.5296 0.37924 13.8307 1.05093C14.4923 1.39243 14.5238 2.2833 13.9536 2.7623L13.9236 2.7875C13.5451 3.10549 13.0093 3.13622 12.5619 2.9262C11.6288 2.48815 10.5872 2.24338 9.48848 2.24338C6.63256 2.24338 4.16244 3.8972 2.98138 6.30048C2.76922 6.73219 2.91337 7.2429 3.28149 7.55217L8.8145 12.2005C9.24051 12.5585 9.86169 12.5585 10.2877 12.2005L14.3336 8.8015C14.8096 8.40159 15.5193 8.46375 15.9188 8.94035C16.3182 9.41696 16.2561 10.1275 15.7801 10.5274L10.2748 15.1526C9.85315 15.5068 9.24821 15.4985 8.8379 15.1608C8.82975 15.1543 8.82167 15.1477 8.81365 15.141L3.61258 10.7715C3.07622 10.3209 2.30699 10.7128 2.48886 11.3898C2.61714 11.8672 2.49379 12.3899 2.11549 12.7077L2.0847 12.7336C1.51453 13.2126 0.64373 13.0268 0.423466 12.315C0.148229 11.4255 0 10.4801 0 9.50001C0 4.2533 4.24814 0 9.48848 0Z" fill="url(#paint0_linear_91_566)"/>
<path d="M16.9104 12.7232C17.48 13.2017 18.3499 13.0169 18.5713 12.3061C18.8498 11.4118 18.9999 10.4608 18.9999 9.47459C18.9999 7.00157 18.0561 4.74926 16.5095 3.05902C16.193 2.71316 15.6925 2.66096 15.2932 2.8763C15.1851 2.91961 15.082 2.98058 14.9879 3.0596L8.8307 8.23239C8.35467 8.6323 8.29258 9.34286 8.69201 9.81947C9.09145 10.2961 9.80115 10.3582 10.2772 9.95832L14.5907 6.33446C15.1166 5.89264 15.9181 6.00925 16.1863 6.64198C16.5552 7.51228 16.7592 8.46957 16.7592 9.47459C16.7592 10.133 16.6716 10.7709 16.5075 11.3774C16.3781 11.8555 16.5012 12.3794 16.8802 12.6978L16.9104 12.7232Z" fill="url(#paint1_linear_91_566)"/>
<path d="M1.70434 4.02193C3.42256 1.5887 6.25466 0 9.45738 0C11.0222 0 12.4985 0.37924 13.7996 1.05093C14.4612 1.39243 14.4927 2.2833 13.9225 2.7623L13.8925 2.7875C13.514 3.10549 12.9781 3.13622 12.5308 2.9262C11.5977 2.48815 10.5561 2.24338 9.45738 2.24338C7.76017 2.24338 6.19922 2.82744 4.96409 3.80578L11.1447 8.99827C11.1731 9.02207 11.2 9.047 11.2254 9.07293L19.5981 16.107C20.0741 16.5069 20.1362 17.2175 19.7367 17.6941C19.3373 18.1707 18.6276 18.2328 18.1516 17.8329L16.195 16.1891C14.4757 17.925 12.0919 19 9.45737 19C6.39222 19 3.66653 17.5448 1.93185 15.2869C1.59969 14.8545 1.70138 14.2454 2.11872 13.8948C2.64456 13.453 3.44043 13.6046 3.87899 14.1333C5.20845 15.736 7.21387 16.7566 9.45737 16.7566C11.4009 16.7566 13.1658 15.9907 14.4674 14.7438L8.68452 9.88558C8.65783 9.86317 8.63244 9.83976 8.60836 9.81547L3.27496 5.33477L1.70434 4.02193Z" fill="url(#paint2_linear_91_566)"/>
<defs>
<linearGradient id="paint0_linear_91_566" x1="-4.39083" y1="-1.49892" x2="35.9006" y2="13.6009" gradientUnits="userSpaceOnUse">
<stop offset="0.0001" stop-color="#C8239B"/>
<stop offset="0.62" stop-color="#5D45DD"/>
<stop offset="1" stop-color="#5141E2"/>
</linearGradient>
<linearGradient id="paint1_linear_91_566" x1="-4.39083" y1="-1.49892" x2="35.9006" y2="13.6009" gradientUnits="userSpaceOnUse">
<stop offset="0.0001" stop-color="#C8239B"/>
<stop offset="0.62" stop-color="#5D45DD"/>
<stop offset="1" stop-color="#5141E2"/>
</linearGradient>
<linearGradient id="paint2_linear_91_566" x1="-2.31232" y1="-1.49892" x2="23.6227" y2="18.9017" gradientUnits="userSpaceOnUse">
<stop stop-color="#433BE8"/>
<stop offset="0.0001" stop-color="#C8239B"/>
<stop offset="1" stop-color="#5141E2"/>
</linearGradient>
</defs>
</svg>
