<svg width="22" height="19" viewBox="0 0 22 19" fill="none" xmlns="http://www.w3.org/2000/svg">
<path fill-rule="evenodd" clip-rule="evenodd" d="M20.2784 6.93857C19.8102 6.93857 19.4305 7.31819 19.4305 7.78647C19.4305 8.25476 19.8102 8.63438 20.2784 8.63438C20.7467 8.63438 21.1263 8.25476 21.1263 7.78647C21.1263 7.31819 20.7467 6.93857 20.2784 6.93857ZM18.5569 7.78647C18.5569 6.83571 19.3277 6.06497 20.2784 6.06497C21.2292 6.06497 21.9999 6.83571 21.9999 7.78647C21.9999 8.73724 21.2292 9.50798 20.2784 9.50798C19.3277 9.50798 18.5569 8.73724 18.5569 7.78647Z" fill="black"/>
<path fill-rule="evenodd" clip-rule="evenodd" d="M11.9408 2.89603C12.182 2.89603 12.3776 3.09159 12.3776 3.33283L12.0179 6.92999C12.0179 7.17123 11.8223 7.36679 11.5811 7.36679C11.3399 7.36679 11.1443 7.17123 11.1443 6.92999L11.504 3.33283C11.504 3.09159 11.6996 2.89603 11.9408 2.89603Z" fill="black"/>
<path fill-rule="evenodd" clip-rule="evenodd" d="M12.0306 1.20023C11.5623 1.20023 11.1827 1.57985 11.1827 2.04813C11.1827 2.51642 11.5623 2.89604 12.0306 2.89604C12.4989 2.89604 12.8785 2.51642 12.8785 2.04813C12.8785 1.57985 12.4989 1.20023 12.0306 1.20023ZM10.3091 2.04813C10.3091 1.09737 11.0799 0.32663 12.0306 0.32663C12.9814 0.32663 13.7521 1.09737 13.7521 2.04813C13.7521 2.99889 12.9814 3.76964 12.0306 3.76964C11.0799 3.76964 10.3091 2.99889 10.3091 2.04813Z" fill="black"/>
<path fill-rule="evenodd" clip-rule="evenodd" d="M3.28189 7.95776C3.36033 7.73738 3.59956 7.62341 3.81622 7.7032L6.6493 8.70135C6.86596 8.78113 6.97801 9.02446 6.89957 9.24484C6.82112 9.46521 6.5819 9.57918 6.36524 9.4994L3.53216 8.50125C3.3155 8.42146 3.20345 8.17813 3.28189 7.95776Z" fill="black"/>
<path fill-rule="evenodd" clip-rule="evenodd" d="M2.43398 6.77585C1.9657 6.77585 1.58608 7.15547 1.58608 7.62375C1.58608 8.09204 1.9657 8.47166 2.43398 8.47166C2.90227 8.47166 3.28189 8.09204 3.28189 7.62375C3.28189 7.15547 2.90227 6.77585 2.43398 6.77585ZM0.712481 7.62375C0.712481 6.67299 1.48322 5.90225 2.43398 5.90225C3.38474 5.90225 4.15549 6.67299 4.15549 7.62375C4.15549 8.57451 3.38474 9.34526 2.43398 9.34526C1.48322 9.34526 0.712481 8.57451 0.712481 7.62375Z" fill="black"/>
<path fill-rule="evenodd" clip-rule="evenodd" d="M19.2508 8.23403C19.3271 8.46289 19.2034 8.71026 18.9746 8.78655L16.129 10.0133C15.9001 10.0896 15.6528 9.9659 15.5765 9.73704C15.5002 9.50819 15.6239 9.26082 15.8527 9.18453L18.6983 7.95778C18.9272 7.88149 19.1746 8.00518 19.2508 8.23403Z" fill="black"/>
<path fill-rule="evenodd" clip-rule="evenodd" d="M14.7149 13.0061C14.917 12.8744 15.1876 12.9316 15.3193 13.1337L16.7704 15.5755C16.9021 15.7776 16.8449 16.0482 16.6428 16.1799C16.4407 16.3115 16.1701 16.2544 16.0384 16.0523L14.5872 13.6105C14.4556 13.4083 14.5127 13.1377 14.7149 13.0061Z" fill="black"/>
<path fill-rule="evenodd" clip-rule="evenodd" d="M17.0603 16.1456C16.592 16.1456 16.2124 16.5253 16.2124 16.9935C16.2124 17.4618 16.592 17.8414 17.0603 17.8414C17.5286 17.8414 17.9082 17.4618 17.9082 16.9935C17.9082 16.5253 17.5286 16.1456 17.0603 16.1456ZM15.3388 16.9935C15.3388 16.0428 16.1095 15.272 17.0603 15.272C18.011 15.272 18.7818 16.0428 18.7818 16.9935C18.7818 17.9443 18.011 18.715 17.0603 18.715C16.1095 18.715 15.3388 17.9443 15.3388 16.9935Z" fill="black"/>
<path fill-rule="evenodd" clip-rule="evenodd" d="M8.29047 13.0066C8.49316 13.1374 8.55143 13.4078 8.42061 13.6105L7.39294 15.666C7.26213 15.8687 6.99177 15.927 6.78908 15.7961C6.58639 15.6653 6.52812 15.395 6.65894 15.1923L7.68661 13.1368C7.81742 12.9341 8.08778 12.8758 8.29047 13.0066Z" fill="black"/>
<path fill-rule="evenodd" clip-rule="evenodd" d="M6.54504 16.0257C6.07675 16.0257 5.69713 16.4053 5.69713 16.8736C5.69713 17.3419 6.07675 17.7215 6.54504 17.7215C7.01332 17.7215 7.39294 17.3419 7.39294 16.8736C7.39294 16.4053 7.01332 16.0257 6.54504 16.0257ZM4.82353 16.8736C4.82353 15.9228 5.59428 15.1521 6.54504 15.1521C7.4958 15.1521 8.26654 15.9228 8.26654 16.8736C8.26654 17.8244 7.4958 18.5951 6.54504 18.5951C5.59428 18.5951 4.82353 17.8244 4.82353 16.8736Z" fill="black"/>
<path fill-rule="evenodd" clip-rule="evenodd" d="M6.19098 8.25636C6.19098 6.66331 7.65454 5.46545 9.3228 5.46545C10.279 5.46545 11.1623 5.85171 11.7386 6.50854C12.1958 6.2645 12.7244 6.12549 13.2968 6.12549C14.9386 6.12549 16.383 7.29814 16.383 8.85039C16.383 9.04998 16.3562 9.24643 16.3089 9.43522C17.0458 9.8042 17.5934 10.5108 17.5934 11.3805C17.5934 12.6568 16.4342 13.5334 15.124 13.5334C15.0432 13.5334 13.152 13.5279 11.2828 13.5224L7.56297 13.5114L7.50586 13.5112L7.45079 13.4964C6.32553 13.1939 5.41445 12.2614 5.41445 11.0725C5.41445 10.3044 5.80145 9.63701 6.37122 9.18498C6.25914 8.90123 6.19098 8.59353 6.19098 8.25636ZM7.62501 12.638L11.2854 12.6488C13.1561 12.6543 15.0449 12.6598 15.124 12.6598C16.0976 12.6598 16.7198 12.0403 16.7198 11.3805C16.7198 10.8244 16.2973 10.3044 15.6369 10.1045L15.1681 9.96257L15.3625 9.51303C15.457 9.2946 15.5094 9.06753 15.5094 8.85039C15.5094 7.89453 14.5785 6.99908 13.2968 6.99908C12.7497 6.99908 12.2681 7.16784 11.8854 7.44437L11.5079 7.71711L11.2598 7.32292C10.8918 6.73787 10.1719 6.33905 9.3228 6.33905C8.02197 6.33905 7.06458 7.2533 7.06458 8.25636C7.06458 8.56292 7.15165 8.84257 7.30683 9.12284L7.51347 9.49608L7.14521 9.71146C6.61286 10.0228 6.28804 10.5304 6.28804 11.0725C6.28804 11.7609 6.81574 12.3998 7.62501 12.638Z" fill="black"/>
</svg>
