<svg width="24" height="24" viewBox="0 0 24 24" fill="none" xmlns="http://www.w3.org/2000/svg">
<path d="M12.0001 14.4254C13.3374 14.4254 14.4254 13.3373 14.4254 12C14.4254 10.6627 13.3374 9.57462 12.0001 9.57462C10.6627 9.57462 9.57468 10.6627 9.57468 12C9.57468 13.3373 10.6627 14.4254 12.0001 14.4254ZM12.0001 10.5335C12.8088 10.5335 13.4666 11.1913 13.4666 12C13.4666 12.8087 12.8088 13.4665 12.0001 13.4665C11.1914 13.4665 10.5335 12.8087 10.5335 12C10.5335 11.1913 11.1914 10.5335 12.0001 10.5335Z" fill="black" stroke="black" stroke-width="0.25"/>
<path d="M22.5206 11.5206H20.6209C20.38 7.14046 16.8595 3.62002 12.4794 3.37911V1.47942C12.4794 1.2147 12.2647 1 12 1C11.7353 1 11.5206 1.2147 11.5206 1.47942V3.84494C11.5206 4.10966 11.7353 4.32436 12 4.32436C16.2324 4.32436 19.6756 7.76762 19.6756 12C19.6756 16.2324 16.2324 19.6756 12 19.6756C7.76762 19.6756 4.32436 16.2324 4.32436 12C4.32436 9.06093 6.03844 6.34151 8.69114 5.07209C8.92997 4.95775 9.03097 4.67154 8.91662 4.43271C8.80236 4.19396 8.51591 4.09296 8.27724 4.20722C6.82852 4.90046 5.60265 5.98243 4.73227 7.33606C3.92445 8.59246 3.46205 10.0302 3.37999 11.5206H1.47942C1.2147 11.5206 1 11.7353 1 12C1 12.2647 1.2147 12.4794 1.47942 12.4794H3.37911C3.62002 16.8595 7.14046 20.38 11.5206 20.6209V22.5206C11.5206 22.7853 11.7353 23 12 23C12.2647 23 12.4794 22.7853 12.4794 22.5206V20.6209C16.8595 20.38 20.38 16.8595 20.6209 12.4794H22.5206C22.7853 12.4794 23 12.2647 23 12C23 11.7353 22.7853 11.5206 22.5206 11.5206Z" fill="black" stroke="black" stroke-width="0.25"/>
</svg>
