<svg width="26" height="26" viewBox="0 0 26 26" fill="none" xmlns="http://www.w3.org/2000/svg">
<path d="M15.125 3C15.5808 3 15.9375 3.36583 15.9375 3.83333C15.9375 3.84833 15.9367 3.90417 15.9351 3.91917L15.1705 11.3333H19.1875C19.6433 11.3333 20 11.6992 20 12.1667C20 12.3442 19.9407 12.5267 19.8367 12.6675L13.3505 22.6475C13.1856 22.875 12.9418 23 12.6875 23C12.2317 23 11.875 22.6342 11.875 22.1667C11.875 22.15 11.8758 22.0842 11.8774 22.0675L12.6371 15.5H7.8125C7.35669 15.5 7 15.1342 7 14.6667C7 14.4908 7.05931 14.3083 7.1625 14.1667L14.4661 3.34583C14.6269 3.125 14.8707 3 15.125 3Z" fill="url(#paint0_linear_37_127)" fill-opacity="0.75"/>
<defs>
<linearGradient id="paint0_linear_37_127" x1="18.9952" y1="3" x2="7.59662" y2="3" gradientUnits="userSpaceOnUse">
<stop stop-color="#C8239B"/>
<stop offset="1" stop-color="#5944DF"/>
</linearGradient>
</defs>
</svg>
