<svg width="20" height="20" viewBox="0 0 20 20" fill="none" xmlns="http://www.w3.org/2000/svg">
<path fill-rule="evenodd" clip-rule="evenodd" d="M18.5221 4.77842H9.55041V2.16714H16.2167C17.1321 2.89593 17.9124 3.77977 18.5221 4.77842ZM19.9998 9.9998H9.55587V7.38931H19.6557C19.8848 8.24053 20.0005 9.11828 19.9998 9.9998ZM10 19.9996C12.2608 20.0048 14.4557 19.2387 16.2222 17.8278H3.77825C5.54445 19.2389 7.73932 20.0051 10 19.9996ZM18.533 15.2224H1.46697C0.969208 14.4106 0.591229 13.5312 0.344727 12.6115H19.6553C19.4089 13.5313 19.0309 14.4106 18.533 15.2224Z" fill="#D80027"/>
<path fill-rule="evenodd" clip-rule="evenodd" d="M4.64285 1.55623H4.63387V1.56248L4.64285 1.55623ZM4.64285 1.55623H5.54713L4.6952 2.16754L5.01746 3.16752L4.16747 2.55621L3.32296 3.16752L3.60069 2.30465C2.85425 2.92939 2.203 3.65973 1.66752 4.47258H1.96205L1.42299 4.86319L1.17847 5.29287L1.43393 6.08739L0.950739 5.73583L0.617542 6.5116L0.895271 7.38268H1.94994L1.11167 8.00024L1.43393 9.00022L0.583949 8.38891L0.0839588 8.75531C0.0281639 9.16779 0.00023656 9.58357 0.000366663 9.99981H10.0002V8.42268e-06C8.10257 -0.00245955 6.2438 0.537485 4.64285 1.55623ZM5.0155 8.99514L5.02292 9.001H5.01746L5.0155 8.99514ZM4.69481 8.00063L5.0155 8.99514L4.16708 8.38969L3.3171 9.001L3.63936 8.00102L2.78937 7.38971H3.84404L4.1663 6.38973L4.48856 7.38971H5.54323L4.69481 8.00063ZM4.70067 5.08975L5.02292 6.08973L4.17294 5.47842L3.32296 6.08973L3.64522 5.08975L2.79523 4.47844H3.8499L4.17216 3.47846L4.49442 4.47844H5.54909L4.70067 5.08975ZM7.76154 8.38969L8.61153 9.001L8.28927 8.00102L9.14081 7.38971H8.08615L7.76389 6.38973L7.44163 7.38971H6.38696L7.23694 8.00102L6.91468 9.001L7.76154 8.38969ZM8.28927 5.08975L8.61153 6.08973L7.76154 5.47842L6.91156 6.08973L7.23382 5.08975L6.38384 4.47844H7.4385L7.76076 3.47846L8.08302 4.47844H9.13769L8.28927 5.08975ZM8.61153 3.17846L8.28927 2.17848L9.14081 1.56717H8.08615L7.76389 0.567185L7.44163 1.56717H6.38696L7.23694 2.17848L6.91468 3.17846L7.76467 2.56715L8.61153 3.17846Z" fill="#0052B4"/>
</svg>
